<svg xmlns="http://www.w3.org/2000/svg" width="29.943" height="29.89" viewBox="0 0 1147.245 1145.215">
  <defs>
    <style>
      .cls-1 {
        fill: #0030ff;
        fill-rule: evenodd;
      }
    </style>
  </defs>
  <path id="Color_Fill_1" data-name="Color Fill 1" class="cls-1" d="M570,24C700.583,21.6,800.149,52.072,880,101c13.284,8.14,26.476,14.219,39,23,90.72,63.607,157.24,145.992,204,254,13.1,30.266,22.24,64.234,32,99q4.5,28,9,56,0.495,11,1,22c3.24,15.109,4.58,49.946,1,66v17q-2.505,22.5-5,45c-3.3,13.45-4.08,28.24-8,42-9.71,34.065-18.66,67.417-32,98-67.71,155.181-189.541,265.41-357,321-28.481,9.46-59.031,12.69-90,20q-27.5,2.505-55,5H599c-20.061.01-40.911,0.86-58-3q-9-.495-18-1-24-4.005-48-8c-40.391-11.42-78.269-22.71-113-38C227.456,1059.76,126.789,957.8,68,823c-10.542-24.171-16.289-48.3-25-75-8.724-26.736-11.041-57.757-18-88l-2-39c-3.432-16.127-2.384-50.894,1-66,3.531-15.762.335-30.057,4-45,9.12-37.181,13.5-74.177,27-107C121.992,240.092,222.688,130.265,385,63c37.853-15.687,79.29-22.4,123-33Z" transform="translate(-20.875 -23.875)"/>
</svg>
