<svg xmlns="http://www.w3.org/2000/svg" xmlns:xlink="http://www.w3.org/1999/xlink" width="109.765" height="28.872" viewBox="0 0 441 116">
  <defs>
    <style>
      .cls-1 {
        fill: #0c43e1;
        fill-rule: evenodd;
      }

      .cls-2, .cls-3 {
        font-size: 30px;
      }

      .cls-3 {
        fill: #050505;
      }

      .cls-3, .cls-4 {
        font-family: "DIN Condensed";
        font-weight: 700;
      }

      .cls-4 {
        font-size: 60px;
        fill: #faf8f8;
      }
    </style>
    <path id="text-path"/>
  </defs>
  <path id="Color_Fill_1" data-name="Color Fill 1" class="cls-1" d="M191,9c68.383-1.091,136.4.869,189,17,18.39,5.64,48.919,9.624,49,33-2.928,2.959-4.62,7.533-8,10-25.787,18.827-65.471,19.635-102,28-14.869,3.405-30.582-.291-46,3-16.142,3.445-65.059,4.727-82,1H169c-19.643-4.384-42.6-2.63-61-7L89,92c-17.669-4.552-35.874-8.564-51-15-11.687-4.973-24.928-8.46-25-25,2.947-2.942,4.618-7.529,8-10C48.908,21.608,92.148,21.86,132,13Z"/>
  <text class="cls-2"><textPath xlink:href="#text-path"><tspan class="cls-3">craft sports</tspan></textPath></text>
  <text id="CRAFT_SPORTS" data-name="CRAFT SPORTS" class="cls-4" x="85.078" y="77.25">CRAFT SPORTS</text>
</svg>
